<?xml version="1.0" encoding="UTF-8"?>
<svg version="1.1" xmlns="http://www.w3.org/2000/svg" width="1000" height="1000">
<path d="M0 0 C1.6953125 1.9765625 1.6953125 1.9765625 3.125 4.625 C3.63160156 5.54539063 4.13820313 6.46578125 4.66015625 7.4140625 C5.10230469 8.26742187 5.54445313 9.12078125 6 10 C6.515625 10.99 7.03125 11.98 7.5625 13 C8.036875 13.99 8.51125 14.98 9 16 C9.42539062 16.81855469 9.85078125 17.63710937 10.2890625 18.48046875 C10.98128906 19.82044922 10.98128906 19.82044922 11.6875 21.1875 C12.12449219 22.02667969 12.56148438 22.86585938 13.01171875 23.73046875 C14 26 14 26 14 29 C14.66 29 15.32 29 16 29 C16.67528223 30.57967807 17.33989694 32.16391903 18 33.75 C18.37125 34.63171875 18.7425 35.5134375 19.125 36.421875 C20 39 20 39 20 43 C20.8957373 42.80229004 21.79147461 42.60458008 22.71435547 42.40087891 C31.48749965 40.54465078 40.13738843 39.29504322 49.07714844 38.546875 C51.10448088 38.37672216 53.13027198 38.19333084 55.15625 38.0078125 C73.78049462 36.34637311 92.43191529 35.76509831 111.125 35.75 C112.12270416 35.74866058 113.12040833 35.74732117 114.14834595 35.74594116 C129.20091006 35.75025622 144.17226396 36.25730078 159.1875 37.3125 C160.04917786 37.37135376 160.91085571 37.43020752 161.79864502 37.49084473 C191.77990326 39.59330109 191.77990326 39.59330109 202 43 C202.103125 42.175 202.20625 41.35 202.3125 40.5 C203.11646056 36.40710988 204.46352158 32.87459775 206 29 C206.66 29 207.32 29 208 29 C208.19529297 28.13568359 208.19529297 28.13568359 208.39453125 27.25390625 C210.99845065 17.5606063 216.84214506 8.50969539 222 0 C230.00789087 0.46756356 237.44295085 1.88963888 245.1875 3.9375 C246.21552734 4.20240234 247.24355469 4.46730469 248.30273438 4.74023438 C250.30744993 5.2571252 252.31138624 5.77704959 254.31445312 6.30029297 C258.7893737 7.46621318 263.27793324 8.5747627 267.76733398 9.68334961 C270.88695512 10.45396214 274.00598376 11.22694321 277.125 12 C278.71248047 12.39058594 278.71248047 12.39058594 280.33203125 12.7890625 C285.29988339 14.02323405 290.15105098 15.35383691 295 17 C297.62218278 17.66496832 300.24390078 18.31081096 302.875 18.9375 C307.63560657 20.09548538 312.21648444 21.3567704 316.75 23.21875 C320.10470802 24.38357917 323.55111263 25.16884394 327 26 C332.51902487 27.33228682 337.72357754 28.90762558 343 31 C344.62122949 31.49177295 346.24658128 31.97008352 347.875 32.4375 C353.06623623 33.96153266 358.00400654 35.93592758 363 38 C364.64548513 38.64671999 366.29131989 39.29255108 367.9375 39.9375 C373.37584397 42.10764998 378.68934176 44.53650074 384 47 C384 47.66 384 48.32 384 49 C384.928125 49.433125 384.928125 49.433125 385.875 49.875 C388 51 388 51 390 53 C390 53.99 390 54.98 390 56 C390.66 56 391.32 56 392 56 C393.23777853 57.9354886 394.3916509 59.92509495 395.5 61.9375 C397.53770258 66.18129859 397.53770258 66.18129859 401 69 C402.078125 70.6796875 402.078125 70.6796875 403.25 72.875 C403.68828125 73.68582031 404.1265625 74.49664062 404.578125 75.33203125 C405.28195312 76.65267578 405.28195312 76.65267578 406 78 C409.47742186 84.46983488 413.02833701 90.82044768 417 97 C419.92732618 101.57774746 422.60548092 106.11518107 425 111 C425.84831611 112.5656841 426.70341076 114.1277011 427.5625 115.6875 C428.71058962 117.79043643 429.85607575 119.89479486 431 122 C431.36544922 122.67224609 431.73089844 123.34449219 432.10742188 124.03710938 C437.49768803 133.99449759 442.51849518 144.03157817 447.04418945 154.41381836 C448.815608 158.46413398 450.70727235 162.21372406 453 166 C453.69051659 167.73285531 454.33601464 169.48426614 454.9375 171.25 C456.46061722 175.58008803 458.15229659 179.7607769 460.0703125 183.9296875 C461.11735683 186.26134085 462.06082282 188.62293527 463 191 C463.33 191.81339844 463.66 192.62679687 464 193.46484375 C469 205.828125 469 205.828125 469 211 C469.66 211 470.32 211 471 211 C471.67364661 213.08108685 472.33866798 215.1649671 473 217.25 C473.37125 218.41015625 473.7425 219.5703125 474.125 220.765625 C475 224 475 224 475 228 C475.66 228 476.32 228 477 228 C477.31453125 229.14855469 477.6290625 230.29710937 477.953125 231.48046875 C480.80764478 241.87422002 480.80764478 241.87422002 483.9375 252.1875 C488.21480317 265.90616748 491.83395244 279.89022072 494.359375 294.0390625 C494.89232763 296.94440804 494.89232763 296.94440804 495.97753906 299.31665039 C497.07779053 302.2041537 497.56398038 304.83777091 498 307.89453125 C498.165 309.01537109 498.33 310.13621094 498.5 311.29101562 C498.665 312.45310547 498.83 313.61519531 499 314.8125 C499.3296742 317.11120484 499.66292627 319.40939979 500 321.70703125 C500.144375 322.7225708 500.28875 323.73811035 500.4375 324.78442383 C500.97653583 328.12336498 500.97653583 328.12336498 501.99780273 331.83056641 C503.118506 336.19329253 503.61371755 340.52624547 504.03515625 345.00390625 C504.11873886 345.84485336 504.20232147 346.68580048 504.28843689 347.55223083 C504.46340956 349.3243405 504.635531 351.09673378 504.80493164 352.86938477 C505.05952845 355.5314297 505.3228971 358.19248764 505.58789062 360.85351562 C506.47591881 369.87905001 507.24978028 378.89331781 507.75170898 387.94897461 C507.97684826 390.71550908 508.44752301 393.28557312 509 396 C509.14141083 397.73963902 509.2446764 399.48266005 509.31640625 401.2265625 C509.35846191 402.24427734 509.40051758 403.26199219 509.44384766 404.31054688 C509.48300293 405.40431641 509.5221582 406.49808594 509.5625 407.625 C509.6042334 408.77291016 509.6459668 409.92082031 509.68896484 411.10351562 C510.26748025 428.47314557 510.20142183 445.82066713 509.5625 463.1875 C509.52334473 464.25613281 509.48418945 465.32476563 509.44384766 466.42578125 C509.24055959 471.29846368 508.93057749 476.09416105 508.26098633 480.92456055 C507.9444523 483.44173152 507.7378533 485.95942506 507.53515625 488.48828125 C507.45716797 489.44154297 507.37917969 490.39480469 507.29882812 491.37695312 C507.13973834 493.3530849 506.98619565 495.32967022 506.83789062 497.30664062 C506.75861328 498.25345703 506.67933594 499.20027344 506.59765625 500.17578125 C506.53070557 501.03083252 506.46375488 501.88588379 506.39477539 502.7668457 C506 505 506 505 504 508 C503.34 508 502.68 508 502 508 C502 508.66 502 509.32 502 510 C496.70588235 514 496.70588235 514 493 514 C492.67 514.99 492.34 515.98 492 517 C490.0234375 518.47265625 490.0234375 518.47265625 487.375 520.0625 C482.67895134 522.94721561 478.07199243 525.92488765 473.5 529 C448.09608139 546 448.09608139 546 444 546 C443.67 546.66 443.34 547.32 443 548 C430.01895566 556.6142592 415.33422938 563.87860177 401.125 570.25 C400.38507812 570.58515625 399.64515625 570.9203125 398.8828125 571.265625 C397 572 397 572 395 572 C395 572.66 395 573.32 395 574 C394.154375 574.31453125 393.30875 574.6290625 392.4375 574.953125 C386.77595484 577.08907158 381.23956271 579.25256084 375.8671875 582.0390625 C368.93336924 585.6075129 361.71390397 588.19953524 354.36328125 590.7734375 C350.84504415 592.05651119 347.47578677 593.53095666 344.078125 595.09765625 C341.17229381 596.35939874 338.19474508 597.32012917 335.1796875 598.28515625 C333.11181865 598.96332829 331.09132655 599.71372786 329.0625 600.5 C325.24893677 601.95567423 321.37376581 603.10388348 317.453125 604.234375 C315.14822755 604.9537379 312.97452941 605.81603727 310.75 606.75 C306.6886899 608.10377003 305.04191844 608.22258811 301 607 C298.98828125 604.671875 298.98828125 604.671875 297.3125 601.75 C296.75175781 600.79609375 296.19101562 599.8421875 295.61328125 598.859375 C295.08089844 597.91578125 294.54851563 596.9721875 294 596 C292.13298863 592.34424142 292.13298863 592.34424142 289 590 C287.95703125 588.3203125 287.95703125 588.3203125 286.8125 586.125 C284.84955454 582.47704825 282.74911051 578.97901626 280.5 575.5 C272 562.27571116 272 562.27571116 272 559 C271.34 559 270.68 559 270 559 C268.79035124 556.58070248 267.58169835 554.16099924 266.37890625 551.73828125 C265.53286965 550.05819157 264.66950556 548.38652629 263.77734375 546.73046875 C260.04151119 539.72745647 260.04151119 539.72745647 261 536 C265.83495615 532.57750295 271.35546634 531.05329351 276.91796875 529.18359375 C280.05098566 528.22008379 280.05098566 528.22008379 282 526 C283.75146944 525.30336079 285.52624395 524.66436435 287.3125 524.0625 C291.23613403 522.74034774 294.47730266 521.16177415 298 519 C300.56224157 517.66565599 303.15688123 516.39808535 305.75 515.125 C311.05930383 512.50240472 316.28848267 509.81139241 321.3984375 506.8125 C323 506 323 506 325 506 C323.49028993 501.7728118 320.64759999 500.37886956 317 498 C317 497.34 317 496.68 317 496 C313.12628285 494.17107782 311.48909485 493.84513734 307.3359375 495.16015625 C306.00674614 495.77544214 304.6866433 496.41064246 303.375 497.0625 C301.94568313 497.72996093 300.5159927 498.39662244 299.0859375 499.0625 C298.38823242 499.39507813 297.69052734 499.72765625 296.97167969 500.0703125 C277.20421224 509.39107972 256.26461497 515.42044762 235.30029297 521.3449707 C233.34761633 521.9010131 231.39979706 522.47406893 229.453125 523.05078125 C224.39535358 524.44109625 219.27467294 525.50127006 214.14453125 526.58789062 C210.25502855 527.12685846 210.25502855 527.12685846 207 529 C203.9414253 529.50576357 200.8912583 529.95740856 197.8203125 530.375 C196.43475662 530.56908447 196.43475662 530.56908447 195.02120972 530.76708984 C192.05634382 531.1820303 189.09075408 531.59145958 186.125 532 C183.16645718 532.40900186 180.20810659 532.81923366 177.25021362 533.23291016 C175.40647306 533.49064186 173.56234333 533.74560741 171.71780396 533.99755859 C170.46167801 534.17279053 170.46167801 534.17279053 169.18017578 534.3515625 C168.44372833 534.45291504 167.70728088 534.55426758 166.94851685 534.65869141 C164.79363601 534.98667524 164.79363601 534.98667524 162 536 C156.78385676 536.50886143 151.5448522 536.76798535 146.3125 537.0625 C145.14062134 537.12878601 145.14062134 537.12878601 143.94506836 537.19641113 C121.303974 538.44810829 98.76378599 538.3608198 76.125 537.125 C75.38411133 537.08588501 74.64322266 537.04677002 73.87988281 537.00646973 C66.74656069 536.6186332 59.75931901 536.13237114 52.77539062 534.56201172 C49.05122052 533.80787383 45.30664566 533.29653681 41.54296875 532.78125 C40.40722412 532.6243721 40.40722412 532.6243721 39.24853516 532.46432495 C36.09351804 532.03031129 32.93795055 531.60066927 29.78149414 531.17724609 C27.45117892 530.86336204 25.12206083 530.54156736 22.79296875 530.21875 C21.73036079 530.07959167 21.73036079 530.07959167 20.64628601 529.93762207 C16.81090413 529.40085651 13.54970519 528.52076327 10 527 C8.49402468 526.63586623 6.97720559 526.31396339 5.453125 526.03515625 C4.6075 525.87466797 3.761875 525.71417969 2.890625 525.54882812 C1.14601627 525.22752075 -0.59877264 524.90718995 -2.34375 524.58789062 C-8.09445339 523.49438566 -13.48424032 521.94488264 -19 520 C-20.95567657 519.38728803 -22.91382333 518.78237215 -24.875 518.1875 C-25.97457031 517.84976563 -27.07414062 517.51203125 -28.20703125 517.1640625 C-30.22005429 516.54626552 -32.23323149 515.92896143 -34.24755859 515.31542969 C-43.05637281 512.62579788 -51.73177556 509.90199579 -60.18359375 506.2109375 C-63.2366515 504.8982497 -66.32518461 503.7272998 -69.4375 502.5625 C-75.18392751 500.40758969 -80.59482568 497.79158956 -86.02734375 494.94140625 C-89.73487715 493.76727281 -91.50649671 494.45369526 -95 496 C-95 496.66 -95 497.32 -95 498 C-96.71659432 499.35803676 -98.53184882 500.49830258 -100.37109375 501.68359375 C-102.29953716 503.00013286 -102.29953716 503.00013286 -103 506 C-102.17113281 506.23976563 -101.34226562 506.47953125 -100.48828125 506.7265625 C-96.42314091 508.2105891 -92.91081687 510.19494661 -89.1875 512.375 C-84.20077663 515.24054763 -79.26723061 517.94699713 -73.953125 520.16796875 C-71.83645784 521.06966896 -69.7999565 522.08104067 -67.75 523.125 C-64.87890555 524.58028953 -62.00054735 525.82905469 -59 527 C-57.60221264 527.62061759 -56.20661854 528.24618429 -54.8125 528.875 C-50.58095967 530.77385927 -46.29322888 532.49290054 -41.96875 534.16796875 C-40 535 -40 535 -39 536 C-39.20496149 541.84140252 -40.4483354 545.24230978 -43.72265625 550.03515625 C-45.57355884 552.88226329 -46.75239319 555.84815121 -48 559 C-48.66 559 -49.32 559 -50 559 C-50.20625 559.804375 -50.4125 560.60875 -50.625 561.4375 C-52.11575368 565.29990726 -54.0778228 568.24891621 -56.41796875 571.63671875 C-58.86218837 575.28796041 -60.91345492 579.13707195 -63 583 C-66.59420945 589.62361457 -66.59420945 589.62361457 -68.34765625 591.25 C-71.3032414 594.38026513 -73.30415126 598.34305038 -75.41992188 602.08203125 C-77.19961693 605.01437854 -78.47440143 606.77978571 -81.67578125 608.12109375 C-86.41973596 607.94828224 -90.43062295 606.53202904 -94.875 604.9375 C-95.80248047 604.61604004 -96.72996094 604.29458008 -97.68554688 603.96337891 C-105.84305301 601.11555029 -113.93762677 598.1055708 -122 595 C-123.13953125 594.56816406 -124.2790625 594.13632812 -125.453125 593.69140625 C-131.68908176 591.31967388 -137.87140244 588.84472936 -144.01953125 586.25390625 C-146.05450832 585.39777566 -148.09380295 584.55185408 -150.13671875 583.71484375 C-155.28335461 581.60323782 -160.30061116 579.40114863 -165.2421875 576.84765625 C-167.74832267 575.63914218 -170.33923061 574.79823082 -173 574 C-173 573.34 -173 572.68 -173 572 C-173.65226562 571.82984375 -174.30453125 571.6596875 -174.9765625 571.484375 C-175.85054688 571.24203125 -176.72453125 570.9996875 -177.625 570.75 C-178.91277344 570.40195313 -178.91277344 570.40195313 -180.2265625 570.046875 C-183.53211183 568.79914652 -186.05963473 566.96142155 -189 565 C-192.88281204 563.01624414 -196.86757779 561.2480182 -200.8359375 559.44335938 C-205.52308789 557.27630346 -209.92159569 554.93626614 -214.24658203 552.11035156 C-216.73253794 550.5361205 -219.34478678 549.26122628 -222 548 C-222 547.34 -222 546.68 -222 546 C-223.26070312 545.64035156 -223.26070312 545.64035156 -224.546875 545.2734375 C-228.44813079 543.8347391 -231.77356593 541.86156257 -235.25 539.625 C-236.27685913 538.9738623 -236.27685913 538.9738623 -237.32446289 538.30957031 C-244.90338468 533.47643639 -252.38273624 528.48778763 -259.82763672 523.45117188 C-261.38615696 522.41005653 -262.95706262 521.38739146 -264.53564453 520.37695312 C-265.3604834 519.84521484 -266.18532227 519.31347656 -267.03515625 518.765625 C-267.79320557 518.28383789 -268.55125488 517.80205078 -269.33227539 517.30566406 C-269.88262451 516.87479492 -270.43297363 516.44392578 -271 516 C-271 515.34 -271 514.68 -271 514 C-271.556875 513.896875 -272.11375 513.79375 -272.6875 513.6875 C-275.4769101 512.85821592 -277.6139064 511.65700944 -280 510 C-280 509.34 -280 508.68 -280 508 C-280.99 507.67 -281.98 507.34 -283 507 C-284.27704662 504.44590676 -284.29515053 502.36383606 -284.5 499.51171875 C-284.5825 498.41279297 -284.665 497.31386719 -284.75 496.18164062 C-284.8325 495.02857422 -284.915 493.87550781 -285 492.6875 C-285.1638582 490.42036818 -285.33042719 488.1534303 -285.5 485.88671875 C-285.5721875 484.87826904 -285.644375 483.86981934 -285.71875 482.83081055 C-285.94822846 480.03769069 -285.94822846 480.03769069 -286.51147461 477.47680664 C-287.04254081 474.78431958 -287.2101429 472.22620285 -287.31640625 469.484375 C-287.35846191 468.4111499 -287.40051758 467.3379248 -287.44384766 466.23217773 C-287.50258057 464.50849976 -287.50258057 464.50849976 -287.5625 462.75 C-287.6251001 460.94994507 -287.6251001 460.94994507 -287.68896484 459.11352539 C-288.54411865 432.52871335 -288.17535321 405.94143074 -285.35644531 379.47949219 C-284.99458531 375.94714377 -284.65943218 372.4131105 -284.33030701 368.87759399 C-283.99811179 365.31627043 -283.65835021 361.75568404 -283.31802368 358.19512939 C-283.14990559 356.42190821 -282.98444674 354.64843255 -282.8218689 352.87469482 C-281.98166693 343.7469725 -280.9748465 334.92586511 -278.72485352 326.01660156 C-277.46561906 320.77608258 -276.73074131 315.45244782 -275.9375 310.125 C-274.96313769 303.59794647 -273.92288443 297.3266668 -272 291 C-271.33166208 288.15511872 -270.73314264 285.2957704 -270.125 282.4375 C-268.55007985 275.21385645 -266.70999169 268.1226685 -264.59912109 261.03466797 C-263.34697636 256.78227425 -262.14897819 252.51411888 -260.9375 248.25 C-259.01408044 241.48266993 -257.03794799 234.73377605 -255 228 C-254.34 228 -253.68 228 -253 228 C-252.8453125 226.576875 -252.8453125 226.576875 -252.6875 225.125 C-252.0089081 220.26508446 -250.4914524 215.66196126 -249 211 C-248.34 211 -247.68 211 -247 211 C-246.9175 210.0925 -246.835 209.185 -246.75 208.25 C-245.9731113 202.62625347 -243.88196771 197.33078295 -242 192 C-241.34 192 -240.68 192 -240 192 C-239.84144531 191.24976563 -239.68289062 190.49953125 -239.51953125 189.7265625 C-238.0817936 183.41958077 -236.23695191 177.99644584 -233.1875 172.296875 C-232.1129845 170.21853581 -231.27551598 168.20317039 -230.5 166 C-228.74800829 161.12152585 -226.35890656 156.60809654 -224 152 C-222.70324303 149.41920629 -221.41457887 146.83438617 -220.125 144.25 C-219.43235605 142.8658532 -218.73964752 141.48173871 -218.046875 140.09765625 C-216.73931382 137.48314951 -215.43710117 134.86611384 -214.140625 132.24609375 C-210.58098013 125.07167677 -206.87597043 118.00775454 -203 111 C-201.99984089 109.14591915 -200.99984176 107.291752 -200 105.4375 C-197.56727799 100.97326407 -195.0027898 96.60633619 -192.36328125 92.26171875 C-190.9057601 89.84365357 -189.52610886 87.38560217 -188.140625 84.92578125 C-186.03262315 81.36672334 -183.74775312 77.91732598 -181.48828125 74.453125 C-179.87784897 72.00307049 -179.87784897 72.00307049 -179 69 C-178.54753906 68.55011719 -178.09507812 68.10023438 -177.62890625 67.63671875 C-174.89974488 64.89446788 -173.28763076 61.43525165 -171.40234375 58.08203125 C-170.93957031 57.39496094 -170.47679687 56.70789063 -170 56 C-169.34 56 -168.68 56 -168 56 C-167.896875 55.401875 -167.79375 54.80375 -167.6875 54.1875 C-166.90175967 51.68741714 -166.03081147 50.62464918 -164 49 C-163.34 49 -162.68 49 -162 49 C-162 48.34 -162 47.68 -162 47 C-152.18076182 42.16698489 -142.45060376 38.26049104 -132 35 C-130.47763442 34.50468488 -128.95654341 34.00541186 -127.4375 33.5 C-126.74269531 33.27054688 -126.04789063 33.04109375 -125.33203125 32.8046875 C-123.54956452 32.18963198 -121.77792273 31.54311883 -120.01171875 30.8828125 C-112.3704113 28.0448644 -104.74133873 25.7625946 -96.83642578 23.78759766 C-92.17681202 22.61599794 -87.65489056 21.23663847 -83.10913086 19.68261719 C-79.11898579 18.39121244 -75.01598644 17.61269964 -70.91796875 16.74609375 C-68.10263851 16.14127473 -68.10263851 16.14127473 -66.10498047 15.02734375 C-63.87081683 13.93695166 -61.82356863 13.36860676 -59.40234375 12.81640625 C-58.52392822 12.61257324 -57.6455127 12.40874023 -56.74047852 12.19873047 C-55.81549561 11.98877441 -54.8905127 11.77881836 -53.9375 11.5625 C-45.46548007 9.60574838 -45.46548007 9.60574838 -37.0625 7.375 C-31.94652273 5.93638396 -26.77607342 4.84329249 -21.57421875 3.76171875 C-16.97385775 2.78131395 -12.40723528 1.67391031 -7.83984375 0.55078125 C-2.74238363 -0.43785957 -2.74238363 -0.43785957 0 0 Z M-33.5 256.5 C-34.22703125 256.64308594 -34.9540625 256.78617187 -35.703125 256.93359375 C-37.47009071 257.28233698 -39.23525309 257.64019723 -41 258 C-41 258.66 -41 259.32 -41 260 C-41.969375 260.061875 -42.93875 260.12375 -43.9375 260.1875 C-51.64448559 261.30625597 -59.38365682 266.78154489 -65 272 C-65 272.66 -65 273.32 -65 274 C-65.86625 274.3403125 -65.86625 274.3403125 -66.75 274.6875 C-69.59739809 276.34848222 -71.12067193 278.31524561 -73 281 C-73 281.66 -73 282.32 -73 283 C-73.99 283.33 -74.98 283.66 -76 284 C-76 284.99 -76 285.98 -76 287 C-76.66 287 -77.32 287 -78 287 C-89.36659056 309.328836 -95.99498222 334.03277924 -88.08203125 358.8828125 C-87.12081036 361.29138898 -86.07789558 363.6418453 -85 366 C-84.40390189 367.53677615 -83.81958863 369.07820244 -83.25 370.625 C-82.8375 371.73875 -82.425 372.8525 -82 374 C-81.34 374 -80.68 374 -80 374 C-79.690625 375.5159375 -79.690625 375.5159375 -79.375 377.0625 C-78.2641744 381.01032623 -76.20967418 383.44821695 -73.45703125 386.421875 C-72 388 -72 388 -70.25 390.4375 C-69.8375 390.953125 -69.425 391.46875 -69 392 C-68.34 392 -67.68 392 -67 392 C-66.6596875 392.928125 -66.6596875 392.928125 -66.3125 393.875 C-64.61583557 396.6219805 -62.94748289 396.86635273 -60 398 C-59.67 398.99 -59.34 399.98 -59 401 C-47.1733646 409.04898054 -35.32929377 412.17798696 -21.25 412.1875 C-19.84234375 412.20586914 -19.84234375 412.20586914 -18.40625 412.22460938 C-8.50314303 412.24512686 -0.31219823 410.67554058 8.4375 406 C9.13037109 405.64421875 9.82324219 405.2884375 10.53710938 404.921875 C13.46580586 403.40517808 16.25389768 401.83073488 19 400 C19 399.34 19 398.68 19 398 C19.721875 397.773125 20.44375 397.54625 21.1875 397.3125 C26.80114143 394.69280067 29.70294858 390.05547885 33 385 C33.49371094 384.51595703 33.98742187 384.03191406 34.49609375 383.53320312 C37.01773118 380.96244289 38.41554759 377.69633801 40 374.5 C40.35594238 373.78602051 40.71188477 373.07204102 41.07861328 372.33642578 C43.4374406 367.47564638 45.23073122 362.71522715 46.4296875 357.4296875 C47 355 47 355 48.0168457 352.28662109 C49.62825689 346.89977792 49.33326271 341.42707595 49.31567383 335.85205078 C49.31252917 333.76931632 49.33595511 331.68802655 49.36132812 329.60546875 C49.3975616 321.86965048 48.6500481 315.27090217 46 308 C45.54979371 306.33672061 45.11097207 304.67028603 44.6875 303 C43.28438711 298.26822569 41.05390313 294.36920235 38.40234375 290.2265625 C37 288 37 288 35.9375 285.8359375 C34.70145339 283.41534622 32.94412088 281.88520813 31 280 C30.46375 279.2575 29.9275 278.515 29.375 277.75 C28.694375 276.88375 28.694375 276.88375 28 276 C27.34 276 26.68 276 26 276 C26 275.34 26 274.68 26 274 C25.34 274 24.68 274 24 274 C23.01 272.02 23.01 272.02 22 270 C21.01 270 20.02 270 19 270 C19 269.34 19 268.68 19 268 C18.01 268 17.02 268 16 268 C15.505 266.515 15.505 266.515 15 265 C12.68877997 263.63173803 12.68877997 263.63173803 9.875 262.5 C8.86824219 262.07074219 7.86148438 261.64148438 6.82421875 261.19921875 C5.89222656 260.80347656 4.96023438 260.40773438 4 260 C2.906875 259.443125 1.81375 258.88625 0.6875 258.3125 C-10.36960789 254.37691923 -22.11805219 254.16037739 -33.5 256.5 Z M216 261 C214.14633545 261.91768161 212.29216429 262.83434057 210.4375 263.75 C208.9573108 264.49797993 207.47776199 265.24723607 206 266 C206 266.66 206 267.32 206 268 C205.01 268 204.02 268 203 268 C203 268.66 203 269.32 203 270 C202.443125 270.061875 201.88625 270.12375 201.3125 270.1875 C196.68819115 271.81225716 194.03331605 275.86083353 191.3125 279.75 C189 283 189 283 187 284 C181.8118809 292.30099055 177.24806511 301.18413103 175.4921875 310.859375 C175 313 175 313 173.99243164 315.21679688 C172.00528169 320.78961592 172.55908517 326.88870183 172.5625 332.75 C172.56209717 333.44940704 172.56169434 334.14881409 172.5612793 334.86941528 C172.59807841 345.92421759 173.46999082 355.80879773 178 366 C178.45004395 367.03664795 178.45004395 367.03664795 178.90917969 368.09423828 C184.07994673 379.75086552 190.42056775 390.43631395 201 398 C201.66 398 202.32 398 203 398 C203.33 398.99 203.66 399.98 204 401 C206.37896452 402.48135275 208.70036211 403.79182007 211.1875 405.0625 C211.84814453 405.41376953 212.50878906 405.76503906 213.18945312 406.12695312 C227.59265365 413.64846653 247.72863402 414.79998095 263.3203125 410.0546875 C269.83168865 407.49190097 276.66683984 404.62878052 282 400 C282 399.34 282 398.68 282 398 C282.78375 397.7525 283.5675 397.505 284.375 397.25 C287.43941457 395.79075497 287.61725761 394.94985044 289 392 C289.639375 391.690625 290.27875 391.38125 290.9375 391.0625 C293.73650973 389.6205859 294.45452358 387.70458374 296 385 C296.680625 384.38125 297.36125 383.7625 298.0625 383.125 C300.60820427 380.33293725 301.1611992 377.63480347 302 374 C302.66 374 303.32 374 304 374 C304.98111907 371.56961367 305.95571482 369.13715538 306.91796875 366.69921875 C307.53938301 365.14904815 308.17780831 363.60495982 308.86328125 362.08203125 C315.22403252 347.30551676 314.43660858 327.35867046 311 312 C310.34 311.01 309.68 310.02 309 309 C308.5198969 307.28217445 308.08713905 305.55080729 307.6875 303.8125 C306.48292435 299.14863017 304.83727906 295.59150217 302.0859375 291.65625 C301 290 301 290 300 287 C299.34 287 298.68 287 298 287 C297.505 285.02 297.505 285.02 297 283 C296.34 283 295.68 283 295 283 C294.7525 282.2575 294.505 281.515 294.25 280.75 C292.89534961 277.76976913 291.4898459 276.10080748 289 274 C288.34 274 287.68 274 287 274 C286.77828125 273.41347656 286.5565625 272.82695312 286.328125 272.22265625 C282.94671076 266.56376006 273.98031037 262.42060182 268 260 C265.24853726 259.74715633 265.24853726 259.74715633 263 260 C263 259.34 263 258.68 263 258 C260.50159546 257.49061655 258.00176612 256.99236886 255.5 256.5 C254.80390625 256.35691406 254.1078125 256.21382813 253.390625 256.06640625 C240.74421641 253.60738236 227.43194145 254.9453811 216 261 Z " fill="#04040B" transform="translate(389,196)"/>
<path d="M0 0 C0 3 0 3 -1.6796875 4.7890625 C-2.40414062 5.39492187 -3.12859375 6.00078125 -3.875 6.625 C-4.59429687 7.23601562 -5.31359375 7.84703125 -6.0546875 8.4765625 C-8 10 -8 10 -10 11 C-9.4409112 7.75728494 -8.5867822 6.06942576 -6 4 C-5.34 4 -4.68 4 -4 4 C-4 3.34 -4 2.68 -4 2 C-2.68 1.34 -1.36 0.68 0 0 Z M-12 11 C-11.34 11.33 -10.68 11.66 -10 12 C-10.33 12.66 -10.66 13.32 -11 14 C-11.66 13.67 -12.32 13.34 -13 13 C-12.67 12.34 -12.34 11.68 -12 11 Z " fill="#070A1A" transform="translate(231,241)"/>
<path d="M0 0 C0.99 0.33 1.98 0.66 3 1 C-0.625 7.875 -0.625 7.875 -4 9 C-2.80100302 5.9168649 -1.52299523 2.93720508 0 0 Z " fill="#080B1B" transform="translate(323,778)"/>
<path d="M0 0 C0.66 0 1.32 0 2 0 C0.68775452 3.93673644 -0.91910327 6.22719294 -4 9 C-2.94124926 5.59687262 -1.99097846 2.98646769 0 0 Z " fill="#07091B" transform="translate(317,787)"/>
<path d="M0 0 C0.33 0 0.66 0 1 0 C0.51171875 6.0546875 0.51171875 6.0546875 0 8 C-0.99 8.66 -1.98 9.32 -3 10 C-2.39009109 6.44219804 -1.4216319 3.3171411 0 0 Z " fill="#0A0A20" transform="translate(349,732)"/>
</svg>
