<?xml version="1.0" encoding="UTF-8"?>
<svg version="1.1" xmlns="http://www.w3.org/2000/svg" width="1000" height="1000">
<path d="M0,0 L72,0 L72,278 L111,278 L111,223 L183,223 L183,278 L222,278 L222,0 L294,0 L294,406 L222,406 L222,350 L167,350 L167,295 L128,295 L128,350 L72,350 L72,406 L0,406 Z " fill="#8a57fc" transform="translate(349,270)"/>
<path d="M0,0 L72,0 L72,1 L73,1 L73,72 L17,72 L17,128 L-39,128 L-39,183 L-94,183 L-94,223 L-39,223 L-39,278 L17,278 L17,334 L73,334 L73,406 L0,406 L0,350 L-55,350 L-55,295 L-111,295 L-111,239 L-166,239 L-166,167 L-111,167 L-111,111 L-55,111 L-55,56 L0,56 Z " fill="#8a57fc" transform="translate(228,270)"/>
<path d="M0,0 L72,0 L72,56 L128,56 L128,111 L183,111 L183,167 L239,167 L239,239 L183,239 L183,295 L128,295 L128,350 L72,350 L72,406 L0,406 L0,334 L55,334 L55,279 L56,279 L56,278 L111,278 L111,223 L167,223 L167,183 L111,183 L111,128 L56,128 L56,127 L55,127 L55,72 L0,72 Z " fill="#8a57fc" transform="translate(692,270)"/>
</svg>
