<?xml version="1.0" encoding="UTF-8"?>
<svg version="1.1" xmlns="http://www.w3.org/2000/svg" width="1000" height="1000">
<path d="M0 0 C23.76 0 47.52 0 72 0 C72 91.74 72 183.48 72 278 C84.87 278 97.74 278 111 278 C111 259.85 111 241.7 111 223 C134.76 223 158.52 223 183 223 C183 241.15 183 259.3 183 278 C195.87 278 208.74 278 222 278 C222 186.26 222 94.52 222 0 C245.76 0 269.52 0 294 0 C294 153.78 294 307.56 294 466 C270.24 466 246.48 466 222 466 C222 447.52 222 429.04 222 410 C203.85 410 185.7 410 167 410 C167 391.85 167 373.7 167 355 C154.13 355 141.26 355 128 355 C128 373.15 128 391.3 128 410 C109.52 410 91.04 410 72 410 C72 428.48 72 446.96 72 466 C48.24 466 24.48 466 0 466 C0 312.22 0 158.44 0 0 Z " fill="#FFFFFF" transform="translate(349,270)"/>
<path d="M0 0 C17.92863777 -0.04010881 17.92863777 -0.04010881 25.54492188 -0.04882812 C30.75090549 -0.0548162 35.95687159 -0.06191555 41.1628418 -0.07543945 C45.35790258 -0.08626959 49.55294459 -0.0922771 53.74801826 -0.09487724 C55.35206968 -0.09673126 56.95612003 -0.10035144 58.5601635 -0.10573006 C60.79916515 -0.11294219 63.0380883 -0.11399087 65.27709961 -0.11352539 C66.55395126 -0.115746 67.83080292 -0.11796661 69.14634705 -0.12025452 C72 0 72 0 73 1 C73.09619441 2.69558703 73.12187659 4.3952084 73.12025452 6.09352112 C73.12231651 7.74896439 73.12231651 7.74896439 73.12442017 9.43785095 C73.12082489 10.65920242 73.11722961 11.88055389 73.11352539 13.13891602 C73.11367142 14.41677979 73.11381744 15.69464355 73.1139679 17.01123047 C73.11425585 20.52553591 73.1083594 24.0398075 73.10139394 27.55410504 C73.09516012 31.22299356 73.09455658 34.89188277 73.09336853 38.56077576 C73.0902553 45.51290435 73.08204202 52.4650173 73.07201904 59.41713899 C73.06085766 67.3299478 73.05534739 75.24275734 73.05032361 83.15557206 C73.0398594 99.43705865 73.02151402 115.71852369 73 132 C54.52 132 36.04 132 17 132 C17 150.48 17 168.96 17 188 C-1.48 188 -19.96 188 -39 188 C-39 217.7 -39 247.4 -39 278 C-20.52 278 -2.04 278 17 278 C17 296.48 17 314.96 17 334 C35.48 334 53.96 334 73 334 C73 377.56 73 421.12 73 466 C48.91 466 24.82 466 0 466 C0 447.52 0 429.04 0 410 C-18.15 410 -36.3 410 -55 410 C-55 391.85 -55 373.7 -55 355 C-73.48 355 -91.96 355 -111 355 C-111 336.52 -111 318.04 -111 299 C-129.15 299 -147.3 299 -166 299 C-166 255.44 -166 211.88 -166 167 C-147.85 167 -129.7 167 -111 167 C-111 148.52 -111 130.04 -111 111 C-92.52 111 -74.04 111 -55 111 C-55 92.85 -55 74.7 -55 56 C-36.85 56 -18.7 56 0 56 C0 37.52 0 19.04 0 0 Z " fill="#FFFFFF" transform="translate(228,270)"/>
<path d="M0 0 C23.76 0 47.52 0 72 0 C72 18.48 72 36.96 72 56 C90.48 56 108.96 56 128 56 C128 74.15 128 92.3 128 111 C146.15 111 164.3 111 183 111 C183 129.48 183 147.96 183 167 C201.48 167 219.96 167 239 167 C239 210.56 239 254.12 239 299 C220.52 299 202.04 299 183 299 C183 317.48 183 335.96 183 355 C164.85 355 146.7 355 128 355 C128 373.15 128 391.3 128 410 C109.52 410 91.04 410 72 410 C72 428.48 72 446.96 72 466 C48.24 466 24.48 466 0 466 C0 422.44 0 378.88 0 334 C18.15 334 36.3 334 55 334 C54.96038938 315.94444318 54.96038938 315.94444318 54.90991211 297.88891602 C54.90699318 295.63557991 54.90444457 293.38224327 54.90234375 291.12890625 C54.89722778 289.94647339 54.89211182 288.76404053 54.88684082 287.54577637 C54.88665955 285.87098206 54.88665955 285.87098206 54.88647461 284.16235352 C54.884254 283.18750504 54.88203339 282.21265656 54.87974548 281.20826721 C55 279 55 279 56 278 C57.71865409 277.9064081 59.44115744 277.88255389 61.16235352 277.88647461 C62.27888306 277.88659546 63.3954126 277.88671631 64.54577637 277.88684082 C65.72820923 277.89195679 66.91064209 277.89707275 68.12890625 277.90234375 C69.74919739 277.90385437 69.74919739 277.90385437 71.40222168 277.90539551 C75.45565851 277.91064626 79.50908027 277.92460737 83.5625 277.9375 C92.616875 277.958125 101.67125 277.97875 111 278 C111 248.3 111 218.6 111 188 C92.94444318 188.03961062 92.94444318 188.03961062 74.88891602 188.09008789 C72.63557991 188.09300682 70.38224327 188.09555543 68.12890625 188.09765625 C66.94647339 188.10277222 65.76404053 188.10788818 64.54577637 188.11315918 C63.42924683 188.11328003 62.31271729 188.11340088 61.16235352 188.11352539 C59.7000808 188.11685631 59.7000808 188.11685631 58.20826721 188.12025452 C56 188 56 188 55 187 C54.9064081 185.28134591 54.88255389 183.55884256 54.88647461 181.83764648 C54.88659546 180.72111694 54.88671631 179.6045874 54.88684082 178.45422363 C54.89195679 177.27179077 54.89707275 176.08935791 54.90234375 174.87109375 C54.90335083 173.79089966 54.90435791 172.71070557 54.90539551 171.59777832 C54.91064626 167.54434149 54.92460737 163.49091973 54.9375 159.4375 C54.9684375 145.8559375 54.9684375 145.8559375 55 132 C36.85 132 18.7 132 0 132 C0 88.44 0 44.88 0 0 Z " fill="#FFFFFF" transform="translate(692,270)"/>
<path d="M0 0 C12.87 0 25.74 0 39 0 C39 18.15 39 36.3 39 55 C57.15 55 75.3 55 94 55 C94 73.48 94 91.96 94 111 C117.76 111 141.52 111 166 111 C166 130.8 166 150.6 166 171 C142.24 171 118.48 171 94 171 C94 152.52 94 134.04 94 115 C75.85 115 57.7 115 39 115 C39 96.85 39 78.7 39 60 C26.13 60 13.26 60 0 60 C0 78.15 0 96.3 0 115 C-18.48 115 -36.96 115 -56 115 C-56 133.48 -56 151.96 -56 171 C-79.76 171 -103.52 171 -128 171 C-128 151.2 -128 131.4 -128 111 C-104.24 111 -80.48 111 -56 111 C-56 92.52 -56 74.04 -56 55 C-37.52 55 -19.04 55 0 55 C0 36.85 0 18.7 0 0 Z " fill="#603CB0" transform="translate(477,565)"/>
<path d="M0 0 C18.15 0 36.3 0 55 0 C55 18.48 55 36.96 55 56 C73.48 56 91.96 56 111 56 C111 74.15 111 92.3 111 111 C129.15 111 147.3 111 166 111 C166 129.48 166 147.96 166 167 C190.09 167 214.18 167 239 167 C239 186.8 239 206.6 239 227 C214.91 227 190.82 227 166 227 C166 208.52 166 190.04 166 171 C147.85 171 129.7 171 111 171 C111 152.85 111 134.7 111 116 C92.52 116 74.04 116 55 116 C55 97.52 55 79.04 55 60 C36.85 60 18.7 60 0 60 C0 40.2 0 20.4 0 0 Z " fill="#603CB0" transform="translate(62,509)"/>
<path d="M0 0 C18.48 0 36.96 0 56 0 C56 19.8 56 39.6 56 60 C37.52 60 19.04 60 0 60 C0 78.48 0 96.96 0 116 C-18.15 116 -36.3 116 -55 116 C-55 134.15 -55 152.3 -55 171 C-73.48 171 -91.96 171 -111 171 C-111 189.48 -111 207.96 -111 227 C-134.76 227 -158.52 227 -183 227 C-183 207.2 -183 187.4 -183 167 C-159.24 167 -135.48 167 -111 167 C-111 148.52 -111 130.04 -111 111 C-92.52 111 -74.04 111 -55 111 C-55 92.85 -55 74.7 -55 56 C-36.85 56 -18.7 56 0 56 C0 37.52 0 19.04 0 0 Z " fill="#603CB0" transform="translate(875,509)"/>
<path d="M0 0 C18.48 0 36.96 0 56 0 C56 19.8 56 39.6 56 60 C37.52 60 19.04 60 0 60 C0 78.48 0 96.96 0 116 C-18.48 116 -36.96 116 -56 116 C-56 127.55 -56 139.1 -56 151 C-74.15 151 -92.3 151 -111 151 C-111 137.8 -111 124.6 -111 111 C-92.85 111 -74.7 111 -56 111 C-56 92.85 -56 74.7 -56 56 C-37.52 56 -19.04 56 0 56 C0 37.52 0 19.04 0 0 Z " fill="#603CB0" transform="translate(245,342)"/>
<path d="M0 0 C18.15 0 36.3 0 55 0 C55.33 18.15 55.66 36.3 56 55 C74.15 55.33 92.3 55.66 111 56 C111 74.15 111 92.3 111 111 C129.48 111 147.96 111 167 111 C167 124.2 167 137.4 167 151 C148.52 151 130.04 151 111 151 C111 139.45 111 127.9 111 116 C107.04128906 116.01160156 103.08257813 116.02320313 99.00390625 116.03515625 C95.18807048 116.04294533 91.37223558 116.04902294 87.55639648 116.05493164 C84.89558519 116.05997383 82.23477668 116.06680736 79.57397461 116.07543945 C75.75894484 116.08751009 71.94395156 116.09322929 68.12890625 116.09765625 C66.93100967 116.10281754 65.7331131 116.10797882 64.49891663 116.11329651 C62.84731789 116.11340981 62.84731789 116.11340981 61.16235352 116.11352539 C60.18750504 116.115746 59.21265656 116.11796661 58.20826721 116.12025452 C56 116 56 116 55 115 C54.9064081 113.28134591 54.88255389 111.55884256 54.88647461 109.83764648 C54.88659546 108.72111694 54.88671631 107.6045874 54.88684082 106.45422363 C54.89195679 105.27179077 54.89707275 104.08935791 54.90234375 102.87109375 C54.90335083 101.79089966 54.90435791 100.71070557 54.90539551 99.59777832 C54.91064626 95.54434149 54.92460737 91.49091973 54.9375 87.4375 C54.9684375 73.8559375 54.9684375 73.8559375 55 60 C36.85 60 18.7 60 0 60 C0 40.2 0 20.4 0 0 Z " fill="#603CB0" transform="translate(692,342)"/>
<path d="M0 0 C18.15 0 36.3 0 55 0 C55 18.48 55 36.96 55 56 C73.48 56 91.96 56 111 56 C111 65.9 111 75.8 111 86 C92.52 86 74.04 86 55 86 C55 77.42 55 68.84 55 60 C36.85 60 18.7 60 0 60 C0 40.2 0 20.4 0 0 Z " fill="#603CB0" transform="translate(62,509)"/>
<path d="M0 0 C18.48 0 36.96 0 56 0 C56 13.2 56 26.4 56 40 C37.52 40 19.04 40 0 40 C0 26.8 0 13.6 0 0 Z " fill="#7C4EE2" transform="translate(803,453)"/>
<path d="M0 0 C18.15 0 36.3 0 55 0 C55 13.2 55 26.4 55 40 C36.85 40 18.7 40 0 40 C0 26.8 0 13.6 0 0 Z " fill="#7C4EE2" transform="translate(134,453)"/>
<path d="M0 0 C24.09 0 48.18 0 73 0 C73 9.9 73 19.8 73 30 C48.91 30 24.82 30 0 30 C0 20.1 0 10.2 0 0 Z " fill="#603CB0" transform="translate(228,706)"/>
<path d="M0 0 C24.09 0 48.18 0 73 0 C73 9.9 73 19.8 73 30 C48.91 30 24.82 30 0 30 C0 20.1 0 10.2 0 0 Z " fill="#7C4EE2" transform="translate(228,676)"/>
<path d="M0 0 C23.76 0 47.52 0 72 0 C72 9.9 72 19.8 72 30 C48.24 30 24.48 30 0 30 C0 20.1 0 10.2 0 0 Z " fill="#603CB0" transform="translate(692,706)"/>
<path d="M0 0 C23.76 0 47.52 0 72 0 C72 9.9 72 19.8 72 30 C48.24 30 24.48 30 0 30 C0 20.1 0 10.2 0 0 Z " fill="#603CB0" transform="translate(571,706)"/>
<path d="M0 0 C23.76 0 47.52 0 72 0 C72 9.9 72 19.8 72 30 C48.24 30 24.48 30 0 30 C0 20.1 0 10.2 0 0 Z " fill="#603CB0" transform="translate(349,706)"/>
<path d="M0 0 C23.76 0 47.52 0 72 0 C72 9.9 72 19.8 72 30 C48.24 30 24.48 30 0 30 C0 20.1 0 10.2 0 0 Z " fill="#7C4EE2" transform="translate(692,676)"/>
<path d="M0 0 C23.76 0 47.52 0 72 0 C72 9.9 72 19.8 72 30 C48.24 30 24.48 30 0 30 C0 20.1 0 10.2 0 0 Z " fill="#7C4EE2" transform="translate(571,676)"/>
<path d="M0 0 C23.76 0 47.52 0 72 0 C72 9.9 72 19.8 72 30 C48.24 30 24.48 30 0 30 C0 20.1 0 10.2 0 0 Z " fill="#7C4EE2" transform="translate(349,676)"/>
<path d="M0 0 C18.48 0 36.96 0 56 0 C56 9.9 56 19.8 56 30 C37.52 30 19.04 30 0 30 C0 20.1 0 10.2 0 0 Z " fill="#603CB0" transform="translate(764,650)"/>
<path d="M0 0 C18.48 0 36.96 0 56 0 C56 9.9 56 19.8 56 30 C37.52 30 19.04 30 0 30 C0 20.1 0 10.2 0 0 Z " fill="#603CB0" transform="translate(421,650)"/>
<path d="M0 0 C18.48 0 36.96 0 56 0 C56 9.9 56 19.8 56 30 C37.52 30 19.04 30 0 30 C0 20.1 0 10.2 0 0 Z " fill="#7C4EE2" transform="translate(764,620)"/>
<path d="M0 0 C18.48 0 36.96 0 56 0 C56 9.9 56 19.8 56 30 C37.52 30 19.04 30 0 30 C0 20.1 0 10.2 0 0 Z " fill="#7C4EE2" transform="translate(421,620)"/>
<path d="M0 0 C18.48 0 36.96 0 56 0 C56 9.9 56 19.8 56 30 C37.52 30 19.04 30 0 30 C0 20.1 0 10.2 0 0 Z " fill="#7C4EE2" transform="translate(117,565)"/>
<path d="M0 0 C18.48 0 36.96 0 56 0 C56 9.9 56 19.8 56 30 C37.52 30 19.04 30 0 30 C0 20.1 0 10.2 0 0 Z " fill="#7C4EE2" transform="translate(875,509)"/>
<path d="M0 0 C18.48 0.33 36.96 0.66 56 1 C56 10.9 56 20.8 56 31 C48.18542926 31.02290171 40.370974 31.04283103 32.55639648 31.05493164 C29.89558519 31.05997383 27.23477668 31.06680736 24.57397461 31.07543945 C20.75894484 31.08751009 16.94395156 31.09322929 13.12890625 31.09765625 C11.33206139 31.10539818 11.33206139 31.10539818 9.49891663 31.11329651 C7.84731789 31.11340981 7.84731789 31.11340981 6.16235352 31.11352539 C5.18750504 31.115746 4.21265656 31.11796661 3.20826721 31.12025452 C1 31 1 31 0 30 C-0.08783542 27.78144736 -0.10694609 25.56011504 -0.09765625 23.33984375 C-0.09515869 22.12417725 -0.09266113 20.90851074 -0.09008789 19.65600586 C-0.08098389 18.09889893 -0.07187988 16.54179199 -0.0625 14.9375 C-0.041875 10.008125 -0.02125 5.07875 0 0 Z " fill="#603CB0" transform="translate(747,427)"/>
<path d="M0 0 C18.48 0 36.96 0 56 0 C56 9.9 56 19.8 56 30 C37.52 30 19.04 30 0 30 C0 20.1 0 10.2 0 0 Z " fill="#603CB0" transform="translate(189,428)"/>
<path d="M0 0 C18.48 0.33 36.96 0.66 56 1 C56 10.9 56 20.8 56 31 C48.18542926 31.02290171 40.370974 31.04283103 32.55639648 31.05493164 C29.89558519 31.05997383 27.23477668 31.06680736 24.57397461 31.07543945 C20.75894484 31.08751009 16.94395156 31.09322929 13.12890625 31.09765625 C11.33206139 31.10539818 11.33206139 31.10539818 9.49891663 31.11329651 C7.84731789 31.11340981 7.84731789 31.11340981 6.16235352 31.11352539 C5.18750504 31.115746 4.21265656 31.11796661 3.20826721 31.12025452 C1 31 1 31 0 30 C-0.08783542 27.78144736 -0.10694609 25.56011504 -0.09765625 23.33984375 C-0.09515869 22.12417725 -0.09266113 20.90851074 -0.09008789 19.65600586 C-0.08098389 18.09889893 -0.07187988 16.54179199 -0.0625 14.9375 C-0.041875 10.008125 -0.02125 5.07875 0 0 Z " fill="#7C4EE2" transform="translate(747,397)"/>
<path d="M0 0 C18.48 0 36.96 0 56 0 C56 9.9 56 19.8 56 30 C37.52 30 19.04 30 0 30 C0 20.1 0 10.2 0 0 Z " fill="#7C4EE2" transform="translate(189,398)"/>
<path d="M0 0 C18.48 0 36.96 0 56 0 C56 9.9 56 19.8 56 30 C37.52 30 19.04 30 0 30 C0 20.1 0 10.2 0 0 Z " fill="#7C4EE2" transform="translate(245,342)"/>
<path d="M0 0 C18.15 0 36.3 0 55 0 C55 9.9 55 19.8 55 30 C36.85 30 18.7 30 0 30 C0 20.1 0 10.2 0 0 Z " fill="#603CB0" transform="translate(516,650)"/>
<path d="M0 0 C18.15 0 36.3 0 55 0 C55 9.9 55 19.8 55 30 C36.85 30 18.7 30 0 30 C0 20.1 0 10.2 0 0 Z " fill="#603CB0" transform="translate(173,650)"/>
<path d="M0 0 C18.15 0 36.3 0 55 0 C55 9.9 55 19.8 55 30 C36.85 30 18.7 30 0 30 C0 20.1 0 10.2 0 0 Z " fill="#7C4EE2" transform="translate(516,620)"/>
<path d="M0 0 C18.15 0 36.3 0 55 0 C55 9.9 55 19.8 55 30 C36.85 30 18.7 30 0 30 C0 20.1 0 10.2 0 0 Z " fill="#7C4EE2" transform="translate(173,620)"/>
<path d="M0 0 C18.15 0 36.3 0 55 0 C55 9.9 55 19.8 55 30 C36.85 30 18.7 30 0 30 C0 20.1 0 10.2 0 0 Z " fill="#603CB0" transform="translate(820,595)"/>
<path d="M0 0 C18.15 0 36.3 0 55 0 C55 9.9 55 19.8 55 30 C36.85 30 18.7 30 0 30 C0 20.1 0 10.2 0 0 Z " fill="#7C4EE2" transform="translate(820,565)"/>
<path d="M0 0 C18.15 0 36.3 0 55 0 C55 9.9 55 19.8 55 30 C36.85 30 18.7 30 0 30 C0 20.1 0 10.2 0 0 Z " fill="#7C4EE2" transform="translate(62,509)"/>
<path d="M0 0 C18.15 0 36.3 0 55 0 C55 9.9 55 19.8 55 30 C36.85 30 18.7 30 0 30 C0 20.1 0 10.2 0 0 Z " fill="#7C4EE2" transform="translate(692,342)"/>
<path d="M0 0 C12.87 0 25.74 0 39 0 C39 9.9 39 19.8 39 30 C26.13 30 13.26 30 0 30 C0 20.1 0 10.2 0 0 Z " fill="#7C4EE2" transform="translate(477,565)"/>
<path d="M0 0 C24.09 0 48.18 0 73 0 C73 4.95 73 9.9 73 15 C48.91 15 24.82 15 0 15 C0 10.05 0 5.1 0 0 Z " fill="#6E45C9" transform="translate(228,706)"/>
<path d="M0 0 C24.09 0 48.18 0 73 0 C73 4.95 73 9.9 73 15 C48.91 15 24.82 15 0 15 C0 10.05 0 5.1 0 0 Z " fill="#8A57FC" transform="translate(228,676)"/>
<path d="M0 0 C23.76 0 47.52 0 72 0 C72 4.95 72 9.9 72 15 C48.24 15 24.48 15 0 15 C0 10.05 0 5.1 0 0 Z " fill="#6E45C9" transform="translate(692,706)"/>
<path d="M0 0 C23.76 0 47.52 0 72 0 C72 4.95 72 9.9 72 15 C48.24 15 24.48 15 0 15 C0 10.05 0 5.1 0 0 Z " fill="#6E45C9" transform="translate(571,706)"/>
<path d="M0 0 C23.76 0 47.52 0 72 0 C72 4.95 72 9.9 72 15 C48.24 15 24.48 15 0 15 C0 10.05 0 5.1 0 0 Z " fill="#6E45C9" transform="translate(349,706)"/>
<path d="M0 0 C23.76 0 47.52 0 72 0 C72 4.95 72 9.9 72 15 C48.24 15 24.48 15 0 15 C0 10.05 0 5.1 0 0 Z " fill="#8A57FC" transform="translate(692,676)"/>
<path d="M0 0 C23.76 0 47.52 0 72 0 C72 4.95 72 9.9 72 15 C48.24 15 24.48 15 0 15 C0 10.05 0 5.1 0 0 Z " fill="#8A57FC" transform="translate(571,676)"/>
<path d="M0 0 C23.76 0 47.52 0 72 0 C72 4.95 72 9.9 72 15 C48.24 15 24.48 15 0 15 C0 10.05 0 5.1 0 0 Z " fill="#8A57FC" transform="translate(349,676)"/>
<path d="M0 0 C18.48 0 36.96 0 56 0 C56 4.95 56 9.9 56 15 C37.52 15 19.04 15 0 15 C0 10.05 0 5.1 0 0 Z " fill="#6E45C9" transform="translate(764,650)"/>
<path d="M0 0 C18.48 0 36.96 0 56 0 C56 4.95 56 9.9 56 15 C37.52 15 19.04 15 0 15 C0 10.05 0 5.1 0 0 Z " fill="#6E45C9" transform="translate(421,650)"/>
<path d="M0 0 C18.48 0 36.96 0 56 0 C56 4.95 56 9.9 56 15 C37.52 15 19.04 15 0 15 C0 10.05 0 5.1 0 0 Z " fill="#8A57FC" transform="translate(764,620)"/>
<path d="M0 0 C18.48 0 36.96 0 56 0 C56 4.95 56 9.9 56 15 C37.52 15 19.04 15 0 15 C0 10.05 0 5.1 0 0 Z " fill="#8A57FC" transform="translate(421,620)"/>
<path d="M0 0 C18.48 0 36.96 0 56 0 C56 4.95 56 9.9 56 15 C37.52 15 19.04 15 0 15 C0 10.05 0 5.1 0 0 Z " fill="#6E45C9" transform="translate(117,595)"/>
<path d="M0 0 C18.48 0 36.96 0 56 0 C56 4.95 56 9.9 56 15 C37.52 15 19.04 15 0 15 C0 10.05 0 5.1 0 0 Z " fill="#8A57FC" transform="translate(117,565)"/>
<path d="M0 0 C18.48 0 36.96 0 56 0 C56 4.95 56 9.9 56 15 C37.52 15 19.04 15 0 15 C0 10.05 0 5.1 0 0 Z " fill="#6E45C9" transform="translate(875,539)"/>
<path d="M0 0 C18.48 0 36.96 0 56 0 C56 4.95 56 9.9 56 15 C37.52 15 19.04 15 0 15 C0 10.05 0 5.1 0 0 Z " fill="#8A57FC" transform="translate(875,509)"/>
<path d="M0 0 C18.48 0 36.96 0 56 0 C56 4.95 56 9.9 56 15 C37.52 15 19.04 15 0 15 C0 10.05 0 5.1 0 0 Z " fill="#8A57FC" transform="translate(803,453)"/>
<path d="M0 0 C18.48 0.33 36.96 0.66 56 1 C56 5.95 56 10.9 56 16 C48.18546786 16.02463956 40.37095812 16.04283105 32.55639648 16.05493164 C29.89558519 16.05997383 27.23477668 16.06680736 24.57397461 16.07543945 C20.75894484 16.08751009 16.94395156 16.09322929 13.12890625 16.09765625 C11.33206139 16.10539818 11.33206139 16.10539818 9.49891663 16.11329651 C7.84731789 16.11340981 7.84731789 16.11340981 6.16235352 16.11352539 C5.18750504 16.115746 4.21265656 16.11796661 3.20826721 16.12025452 C1 16 1 16 0 15 C0 10.05 0 5.1 0 0 Z " fill="#6E45C9" transform="translate(747,427)"/>
<path d="M0 0 C18.48 0 36.96 0 56 0 C56 4.95 56 9.9 56 15 C37.52 15 19.04 15 0 15 C0 10.05 0 5.1 0 0 Z " fill="#6E45C9" transform="translate(189,428)"/>
<path d="M0 0 C18.48 0.33 36.96 0.66 56 1 C56 5.95 56 10.9 56 16 C48.18546786 16.02463956 40.37095812 16.04283105 32.55639648 16.05493164 C29.89558519 16.05997383 27.23477668 16.06680736 24.57397461 16.07543945 C20.75894484 16.08751009 16.94395156 16.09322929 13.12890625 16.09765625 C11.33206139 16.10539818 11.33206139 16.10539818 9.49891663 16.11329651 C7.84731789 16.11340981 7.84731789 16.11340981 6.16235352 16.11352539 C5.18750504 16.115746 4.21265656 16.11796661 3.20826721 16.12025452 C1 16 1 16 0 15 C0 10.05 0 5.1 0 0 Z " fill="#8A57FC" transform="translate(747,397)"/>
<path d="M0 0 C18.48 0 36.96 0 56 0 C56 4.95 56 9.9 56 15 C37.52 15 19.04 15 0 15 C0 10.05 0 5.1 0 0 Z " fill="#8A57FC" transform="translate(189,398)"/>
<path d="M0 0 C18.48 0 36.96 0 56 0 C56 4.95 56 9.9 56 15 C37.52 15 19.04 15 0 15 C0 10.05 0 5.1 0 0 Z " fill="#6E45C9" transform="translate(245,372)"/>
<path d="M0 0 C18.48 0 36.96 0 56 0 C56 4.95 56 9.9 56 15 C37.52 15 19.04 15 0 15 C0 10.05 0 5.1 0 0 Z " fill="#8A57FC" transform="translate(245,342)"/>
<path d="M0 0 C18.15 0 36.3 0 55 0 C55 4.95 55 9.9 55 15 C36.85 15 18.7 15 0 15 C0 10.05 0 5.1 0 0 Z " fill="#6E45C9" transform="translate(516,650)"/>
<path d="M0 0 C18.15 0 36.3 0 55 0 C55 4.95 55 9.9 55 15 C36.85 15 18.7 15 0 15 C0 10.05 0 5.1 0 0 Z " fill="#6E45C9" transform="translate(173,650)"/>
<path d="M0 0 C18.15 0 36.3 0 55 0 C55 4.95 55 9.9 55 15 C36.85 15 18.7 15 0 15 C0 10.05 0 5.1 0 0 Z " fill="#8A57FC" transform="translate(516,620)"/>
<path d="M0 0 C18.15 0 36.3 0 55 0 C55 4.95 55 9.9 55 15 C36.85 15 18.7 15 0 15 C0 10.05 0 5.1 0 0 Z " fill="#8A57FC" transform="translate(173,620)"/>
<path d="M0 0 C18.15 0 36.3 0 55 0 C55 4.95 55 9.9 55 15 C36.85 15 18.7 15 0 15 C0 10.05 0 5.1 0 0 Z " fill="#6E45C9" transform="translate(820,595)"/>
<path d="M0 0 C18.15 0 36.3 0 55 0 C55 4.95 55 9.9 55 15 C36.85 15 18.7 15 0 15 C0 10.05 0 5.1 0 0 Z " fill="#8A57FC" transform="translate(820,565)"/>
<path d="M0 0 C18.15 0 36.3 0 55 0 C55 4.95 55 9.9 55 15 C36.85 15 18.7 15 0 15 C0 10.05 0 5.1 0 0 Z " fill="#6E45C9" transform="translate(62,539)"/>
<path d="M0 0 C18.15 0 36.3 0 55 0 C55 4.95 55 9.9 55 15 C36.85 15 18.7 15 0 15 C0 10.05 0 5.1 0 0 Z " fill="#8A57FC" transform="translate(62,509)"/>
<path d="M0 0 C18.15 0 36.3 0 55 0 C55 4.95 55 9.9 55 15 C36.85 15 18.7 15 0 15 C0 10.05 0 5.1 0 0 Z " fill="#8A57FC" transform="translate(134,453)"/>
<path d="M0 0 C18.15 0 36.3 0 55 0 C55 4.95 55 9.9 55 15 C36.85 15 18.7 15 0 15 C0 10.05 0 5.1 0 0 Z " fill="#6E45C9" transform="translate(692,372)"/>
<path d="M0 0 C18.15 0 36.3 0 55 0 C55 4.95 55 9.9 55 15 C36.85 15 18.7 15 0 15 C0 10.05 0 5.1 0 0 Z " fill="#8A57FC" transform="translate(692,342)"/>
<path d="M0 0 C12.87 0 25.74 0 39 0 C39 4.95 39 9.9 39 15 C26.13 15 13.26 15 0 15 C0 10.05 0 5.1 0 0 Z " fill="#6E45C9" transform="translate(477,595)"/>
<path d="M0 0 C12.87 0 25.74 0 39 0 C39 4.95 39 9.9 39 15 C26.13 15 13.26 15 0 15 C0 10.05 0 5.1 0 0 Z " fill="#8A57FC" transform="translate(477,565)"/>
<path d="M0 0 C18.48 0 36.96 0 56 0 C56 3.3 56 6.6 56 10 C37.52 10 19.04 10 0 10 C0 6.7 0 3.4 0 0 Z " fill="#6E45C9" transform="translate(803,483)"/>
<path d="M0 0 C18.15 0 36.3 0 55 0 C55 3.3 55 6.6 55 10 C36.85 10 18.7 10 0 10 C0 6.7 0 3.4 0 0 Z " fill="#6E45C9" transform="translate(134,483)"/>
</svg>
