<?xml version="1.0" encoding="UTF-8"?>
<svg version="1.1" xmlns="http://www.w3.org/2000/svg" width="1000" height="1000">
<path d="M0 0 C23.76 0 47.52 0 72 0 C72 91.74 72 183.48 72 278 C84.87 278 97.74 278 111 278 C111 259.85 111 241.7 111 223 C134.76 223 158.52 223 183 223 C183 241.15 183 259.3 183 278 C195.87 278 208.74 278 222 278 C222 186.26 222 94.52 222 0 C245.76 0 269.52 0 294 0 C294 147.18 294 294.36 294 446 C270.24 446 246.48 446 222 446 C222 427.52 222 409.04 222 390 C203.85 390 185.7 390 167 390 C167 371.85 167 353.7 167 335 C154.13 335 141.26 335 128 335 C128 353.15 128 371.3 128 390 C109.52 390 91.04 390 72 390 C72 408.48 72 426.96 72 446 C48.24 446 24.48 446 0 446 C0 298.82 0 151.64 0 0 Z " fill="#FFFFFF" transform="translate(349,230)"/>
<path d="M0 0 C17.92863777 -0.04010881 17.92863777 -0.04010881 25.54492188 -0.04882812 C30.75090549 -0.0548162 35.95687159 -0.06191555 41.1628418 -0.07543945 C45.35790258 -0.08626959 49.55294459 -0.0922771 53.74801826 -0.09487724 C55.35206968 -0.09673126 56.95612003 -0.10035144 58.5601635 -0.10573006 C60.79916515 -0.11294219 63.0380883 -0.11399087 65.27709961 -0.11352539 C66.55395126 -0.115746 67.83080292 -0.11796661 69.14634705 -0.12025452 C72 0 72 0 73 1 C73.09558036 2.44213999 73.12188394 3.88894079 73.12025452 5.33424377 C73.12231651 6.73726242 73.12231651 6.73726242 73.12442017 8.16862488 C73.12082489 9.20296158 73.11722961 10.23729828 73.11352539 11.30297852 C73.11367142 12.38577087 73.11381744 13.46856323 73.1139679 14.58416748 C73.11326823 18.18243374 73.10547333 21.78064897 73.09765625 25.37890625 C73.09579226 27.86612418 73.09436827 30.35334248 73.09336853 32.84056091 C73.0899335 38.73021191 73.08204277 44.6198439 73.07201904 50.50948709 C73.05780572 59.04538983 73.05254737 67.5812988 73.04621124 76.11721039 C73.03649861 88.07815556 73.01734308 100.03905248 73 112 C54.52 112 36.04 112 17 112 C17 130.48 17 148.96 17 168 C-1.48 168 -19.96 168 -39 168 C-39 204.3 -39 240.6 -39 278 C-20.52 278 -2.04 278 17 278 C17 296.48 17 314.96 17 334 C35.48 334 53.96 334 73 334 C73 370.96 73 407.92 73 446 C48.91 446 24.82 446 0 446 C0 427.52 0 409.04 0 390 C-18.15 390 -36.3 390 -55 390 C-55 371.85 -55 353.7 -55 335 C-73.48 335 -91.96 335 -111 335 C-111 316.52 -111 298.04 -111 279 C-129.15 279 -147.3 279 -166 279 C-166 242.04 -166 205.08 -166 167 C-147.85 167 -129.7 167 -111 167 C-111 148.52 -111 130.04 -111 111 C-92.52 111 -74.04 111 -55 111 C-55 92.85 -55 74.7 -55 56 C-36.85 56 -18.7 56 0 56 C0 37.52 0 19.04 0 0 Z " fill="#FFFFFF" transform="translate(228,230)"/>
<path d="M0 0 C23.76 0 47.52 0 72 0 C72 18.48 72 36.96 72 56 C90.48 56 108.96 56 128 56 C128 74.15 128 92.3 128 111 C146.15 111 164.3 111 183 111 C183 129.48 183 147.96 183 167 C201.48 167 219.96 167 239 167 C239 203.96 239 240.92 239 279 C220.52 279 202.04 279 183 279 C183 297.48 183 315.96 183 335 C164.85 335 146.7 335 128 335 C128 353.15 128 371.3 128 390 C109.52 390 91.04 390 72 390 C72 408.48 72 426.96 72 446 C48.24 446 24.48 446 0 446 C0 409.04 0 372.08 0 334 C18.15 334 36.3 334 55 334 C54.96038938 315.94444318 54.96038938 315.94444318 54.90991211 297.88891602 C54.90699318 295.63557991 54.90444457 293.38224327 54.90234375 291.12890625 C54.89722778 289.94647339 54.89211182 288.76404053 54.88684082 287.54577637 C54.88665955 285.87098206 54.88665955 285.87098206 54.88647461 284.16235352 C54.884254 283.18750504 54.88203339 282.21265656 54.87974548 281.20826721 C55 279 55 279 56 278 C74.15 278 92.3 278 111 278 C111 241.7 111 205.4 111 168 C92.85 168 74.7 168 56 168 C55 167 55 167 54.87974548 164.79173279 C54.88196609 163.81688431 54.88418671 162.84203583 54.88647461 161.83764648 C54.88659546 160.72111694 54.88671631 159.6045874 54.88684082 158.45422363 C54.89195679 157.27179077 54.89707275 156.08935791 54.90234375 154.87109375 C54.90335083 153.79089966 54.90435791 152.71070557 54.90539551 151.59777832 C54.91064626 147.54434149 54.92460737 143.49091973 54.9375 139.4375 C54.9684375 125.8559375 54.9684375 125.8559375 55 112 C36.85 112 18.7 112 0 112 C0 75.04 0 38.08 0 0 Z " fill="#FFFFFF" transform="translate(692,230)"/>
<path d="M0 0 C17.92863777 -0.04010881 17.92863777 -0.04010881 25.54492188 -0.04882812 C30.75090549 -0.0548162 35.95687159 -0.06191555 41.1628418 -0.07543945 C45.35790258 -0.08626959 49.55294459 -0.0922771 53.74801826 -0.09487724 C55.35206968 -0.09673126 56.95612003 -0.10035144 58.5601635 -0.10573006 C60.79916515 -0.11294219 63.0380883 -0.11399087 65.27709961 -0.11352539 C66.55395126 -0.115746 67.83080292 -0.11796661 69.14634705 -0.12025452 C72 0 72 0 73 1 C73.08867636 3.95683231 73.11527527 6.89085214 73.09765625 9.84765625 C73.09664917 10.63297729 73.09564209 11.41829834 73.09460449 12.22741699 C73.08935638 15.17245943 73.07539523 18.11748112 73.0625 21.0625 C73.041875 27.641875 73.02125 34.22125 73 41 C48.91 40.67 24.82 40.34 0 40 C0 26.8 0 13.6 0 0 Z " fill="#57C9FC" transform="translate(228,230)"/>
<path d="M0 0 C23.76 0 47.52 0 72 0 C72 13.2 72 26.4 72 40 C48.24 40 24.48 40 0 40 C0 26.8 0 13.6 0 0 Z " fill="#57C9FC" transform="translate(460,453)"/>
<path d="M0 0 C23.76 0 47.52 0 72 0 C72 13.2 72 26.4 72 40 C48.24 40 24.48 40 0 40 C0 26.8 0 13.6 0 0 Z " fill="#57C9FC" transform="translate(692,230)"/>
<path d="M0 0 C23.76 0 47.52 0 72 0 C72 13.2 72 26.4 72 40 C48.24 40 24.48 40 0 40 C0 26.8 0 13.6 0 0 Z " fill="#57C9FC" transform="translate(571,230)"/>
<path d="M0 0 C23.76 0 47.52 0 72 0 C72 13.2 72 26.4 72 40 C48.24 40 24.48 40 0 40 C0 26.8 0 13.6 0 0 Z " fill="#57C9FC" transform="translate(349,230)"/>
<path d="M0 0 C18.48 0 36.96 0 56 0 C56 13.2 56 26.4 56 40 C37.52 40 19.04 40 0 40 C0 26.8 0 13.6 0 0 Z " fill="#57C9FC" transform="translate(245,564)"/>
<path d="M0 0 C0.97484848 0.00222061 1.94969696 0.00444122 2.9540863 0.00672913 C4.05515213 0.00680466 5.15621796 0.00688019 6.29064941 0.00695801 C8.08749428 0.01469994 8.08749428 0.01469994 9.92063904 0.02259827 C11.14000656 0.02401321 12.35937408 0.02542816 13.61569214 0.02688599 C17.52856349 0.03250485 21.4413786 0.04506055 25.35423279 0.05775452 C27.99941426 0.06276709 30.64459662 0.06733041 33.28977966 0.07142639 C39.79047005 0.08163156 46.29103812 0.10120331 52.79173279 0.12025452 C52.79173279 13.32025452 52.79173279 26.52025452 52.79173279 40.12025452 C34.31173279 40.45025452 15.83173279 40.78025452 -3.20826721 41.12025452 C-3.22889221 34.54087952 -3.24951721 27.96150452 -3.27076721 21.18275452 C-3.28442322 18.06398865 -3.28442322 18.06398865 -3.2983551 14.88221741 C-3.30127423 13.24411585 -3.30382279 11.60601358 -3.30592346 9.96791077 C-3.31103943 9.10935486 -3.3161554 8.25079895 -3.32142639 7.3662262 C-3.32173631 5.283894 -3.27068897 3.20165092 -3.20826721 1.12025452 C-2.20826721 0.12025452 -2.20826721 0.12025452 0 0 Z " fill="#57C9FC" transform="translate(750.2082672119141,507.87974548339844)"/>
<path d="M0 0 C18.48 0 36.96 0 56 0 C56 13.2 56 26.4 56 40 C37.52 40 19.04 40 0 40 C0 26.8 0 13.6 0 0 Z " fill="#57C9FC" transform="translate(189,508)"/>
<path d="M0 0 C18.48 0 36.96 0 56 0 C56 13.2 56 26.4 56 40 C37.52 40 19.04 40 0 40 C0 26.8 0 13.6 0 0 Z " fill="#57C9FC" transform="translate(803,453)"/>
<path d="M0 0 C18.48 0 36.96 0 56 0 C56 13.2 56 26.4 56 40 C37.52 40 19.04 40 0 40 C0 26.8 0 13.6 0 0 Z " fill="#57C9FC" transform="translate(875,397)"/>
<path d="M0 0 C18.48 0 36.96 0 56 0 C56 13.2 56 26.4 56 40 C37.52 40 19.04 40 0 40 C0 26.8 0 13.6 0 0 Z " fill="#57C9FC" transform="translate(117,341)"/>
<path d="M0 0 C18.48 0 36.96 0 56 0 C56 13.2 56 26.4 56 40 C37.52 40 19.04 40 0 40 C0 26.8 0 13.6 0 0 Z " fill="#57C9FC" transform="translate(764,286)"/>
<path d="M0 0 C18.15 0 36.3 0 55 0 C55 13.2 55 26.4 55 40 C36.85 40 18.7 40 0 40 C0 26.8 0 13.6 0 0 Z " fill="#57C9FC" transform="translate(692,564)"/>
<path d="M0 0 C18.15 0 36.3 0 55 0 C55 13.2 55 26.4 55 40 C36.85 40 18.7 40 0 40 C0 26.8 0 13.6 0 0 Z " fill="#57C9FC" transform="translate(134,453)"/>
<path d="M0 0 C18.15 0 36.3 0 55 0 C55 13.2 55 26.4 55 40 C36.85 40 18.7 40 0 40 C0 26.8 0 13.6 0 0 Z " fill="#57C9FC" transform="translate(62,397)"/>
<path d="M0 0 C18.15 0 36.3 0 55 0 C55 13.2 55 26.4 55 40 C36.85 40 18.7 40 0 40 C0 26.8 0 13.6 0 0 Z " fill="#57C9FC" transform="translate(820,341)"/>
<path d="M0 0 C18.15 0 36.3 0 55 0 C55 13.2 55 26.4 55 40 C36.85 40 18.7 40 0 40 C0 26.8 0 13.6 0 0 Z " fill="#57C9FC" transform="translate(173,286)"/>
<path d="M0 0 C12.87 0 25.74 0 39 0 C39 13.2 39 26.4 39 40 C26.13 40 13.26 40 0 40 C0 26.8 0 13.6 0 0 Z " fill="#57C9FC" transform="translate(532,508)"/>
<path d="M0 0 C12.87 0 25.74 0 39 0 C39 13.2 39 26.4 39 40 C26.13 40 13.26 40 0 40 C0 26.8 0 13.6 0 0 Z " fill="#57C9FC" transform="translate(421,508)"/>
<path d="M0 0 C9.37036254 -0.02255243 18.74070718 -0.0409159 28.11109066 -0.05181217 C32.46168459 -0.05704065 36.81225907 -0.06413765 41.1628418 -0.07543945 C45.35790258 -0.08626959 49.55294459 -0.0922771 53.74801826 -0.09487724 C55.35206968 -0.09673126 56.95612003 -0.10035144 58.5601635 -0.10573006 C60.79916515 -0.11294219 63.0380883 -0.11399087 65.27709961 -0.11352539 C66.55395126 -0.115746 67.83080292 -0.11796661 69.14634705 -0.12025452 C72 0 72 0 73 1 C73 7.6 73 14.2 73 21 C48.91 20.67 24.82 20.34 0 20 C0 13.4 0 6.8 0 0 Z " fill="#45A0C9" transform="translate(228,230)"/>
<path d="M0 0 C23.76 0 47.52 0 72 0 C72 6.6 72 13.2 72 20 C48.24 20 24.48 20 0 20 C0 13.4 0 6.8 0 0 Z " fill="#45A0C9" transform="translate(460,453)"/>
<path d="M0 0 C23.76 0 47.52 0 72 0 C72 6.6 72 13.2 72 20 C48.24 20 24.48 20 0 20 C0 13.4 0 6.8 0 0 Z " fill="#45A0C9" transform="translate(692,230)"/>
<path d="M0 0 C23.76 0 47.52 0 72 0 C72 6.6 72 13.2 72 20 C48.24 20 24.48 20 0 20 C0 13.4 0 6.8 0 0 Z " fill="#45A0C9" transform="translate(571,230)"/>
<path d="M0 0 C23.76 0 47.52 0 72 0 C72 6.6 72 13.2 72 20 C48.24 20 24.48 20 0 20 C0 13.4 0 6.8 0 0 Z " fill="#45A0C9" transform="translate(349,230)"/>
<path d="M0 0 C18.48 0 36.96 0 56 0 C56 6.6 56 13.2 56 20 C37.52 20 19.04 20 0 20 C0 13.4 0 6.8 0 0 Z " fill="#45A0C9" transform="translate(245,564)"/>
<path d="M0 0 C0.97484848 0.00222061 1.94969696 0.00444122 2.9540863 0.00672913 C4.05515213 0.00680466 5.15621796 0.00688019 6.29064941 0.00695801 C8.08749428 0.01469994 8.08749428 0.01469994 9.92063904 0.02259827 C11.14000656 0.02401321 12.35937408 0.02542816 13.61569214 0.02688599 C17.52856349 0.03250485 21.4413786 0.04506055 25.35423279 0.05775452 C27.99941426 0.06276709 30.64459662 0.06733041 33.28977966 0.07142639 C39.79045253 0.08248041 46.29108311 0.09975768 52.79173279 0.12025452 C52.79173279 6.72025452 52.79173279 13.32025452 52.79173279 20.12025452 C34.31173279 20.45025452 15.83173279 20.78025452 -3.20826721 21.12025452 C-3.20826721 0.17471102 -3.20826721 0.17471102 0 0 Z " fill="#45A0C9" transform="translate(750.2082672119141,507.87974548339844)"/>
<path d="M0 0 C18.48 0 36.96 0 56 0 C56 6.6 56 13.2 56 20 C37.52 20 19.04 20 0 20 C0 13.4 0 6.8 0 0 Z " fill="#45A0C9" transform="translate(189,508)"/>
<path d="M0 0 C18.48 0 36.96 0 56 0 C56 6.6 56 13.2 56 20 C37.52 20 19.04 20 0 20 C0 13.4 0 6.8 0 0 Z " fill="#45A0C9" transform="translate(803,453)"/>
<path d="M0 0 C18.48 0 36.96 0 56 0 C56 6.6 56 13.2 56 20 C37.52 20 19.04 20 0 20 C0 13.4 0 6.8 0 0 Z " fill="#45A0C9" transform="translate(875,397)"/>
<path d="M0 0 C18.48 0 36.96 0 56 0 C56 6.6 56 13.2 56 20 C37.52 20 19.04 20 0 20 C0 13.4 0 6.8 0 0 Z " fill="#45A0C9" transform="translate(117,341)"/>
<path d="M0 0 C18.48 0 36.96 0 56 0 C56 6.6 56 13.2 56 20 C37.52 20 19.04 20 0 20 C0 13.4 0 6.8 0 0 Z " fill="#45A0C9" transform="translate(764,286)"/>
<path d="M0 0 C18.15 0 36.3 0 55 0 C55 6.6 55 13.2 55 20 C36.85 20 18.7 20 0 20 C0 13.4 0 6.8 0 0 Z " fill="#45A0C9" transform="translate(692,564)"/>
<path d="M0 0 C18.15 0 36.3 0 55 0 C55 6.6 55 13.2 55 20 C36.85 20 18.7 20 0 20 C0 13.4 0 6.8 0 0 Z " fill="#45A0C9" transform="translate(134,453)"/>
<path d="M0 0 C18.15 0 36.3 0 55 0 C55 6.6 55 13.2 55 20 C36.85 20 18.7 20 0 20 C0 13.4 0 6.8 0 0 Z " fill="#45A0C9" transform="translate(62,397)"/>
<path d="M0 0 C18.15 0 36.3 0 55 0 C55 6.6 55 13.2 55 20 C36.85 20 18.7 20 0 20 C0 13.4 0 6.8 0 0 Z " fill="#45A0C9" transform="translate(820,341)"/>
<path d="M0 0 C18.15 0 36.3 0 55 0 C55 6.6 55 13.2 55 20 C36.85 20 18.7 20 0 20 C0 13.4 0 6.8 0 0 Z " fill="#45A0C9" transform="translate(173,286)"/>
<path d="M0 0 C12.87 0 25.74 0 39 0 C39 6.6 39 13.2 39 20 C26.13 20 13.26 20 0 20 C0 13.4 0 6.8 0 0 Z " fill="#45A0C9" transform="translate(532,508)"/>
<path d="M0 0 C12.87 0 25.74 0 39 0 C39 6.6 39 13.2 39 20 C26.13 20 13.26 20 0 20 C0 13.4 0 6.8 0 0 Z " fill="#45A0C9" transform="translate(421,508)"/>
<path d="M0 0 C9.37035938 -0.02312504 18.74070901 -0.04091591 28.11109066 -0.05181217 C32.46168459 -0.05704065 36.81225907 -0.06413765 41.1628418 -0.07543945 C45.35790258 -0.08626959 49.55294459 -0.0922771 53.74801826 -0.09487724 C55.35206968 -0.09673126 56.95612003 -0.10035144 58.5601635 -0.10573006 C60.79916515 -0.11294219 63.0380883 -0.11399087 65.27709961 -0.11352539 C66.55395126 -0.115746 67.83080292 -0.11796661 69.14634705 -0.12025452 C72 0 72 0 73 1 C73 4.3 73 7.6 73 11 C48.91 10.67 24.82 10.34 0 10 C0 6.7 0 3.4 0 0 Z " fill="#4EB4E2" transform="translate(228,250)"/>
<path d="M0 0 C9.37035938 -0.02312504 18.74070901 -0.04091591 28.11109066 -0.05181217 C32.46168459 -0.05704065 36.81225907 -0.06413765 41.1628418 -0.07543945 C45.35790258 -0.08626959 49.55294459 -0.0922771 53.74801826 -0.09487724 C55.35206968 -0.09673126 56.95612003 -0.10035144 58.5601635 -0.10573006 C60.79916515 -0.11294219 63.0380883 -0.11399087 65.27709961 -0.11352539 C66.55395126 -0.115746 67.83080292 -0.11796661 69.14634705 -0.12025452 C72 0 72 0 73 1 C73 4.3 73 7.6 73 11 C48.91 10.67 24.82 10.34 0 10 C0 6.7 0 3.4 0 0 Z " fill="#3C8CB0" transform="translate(228,230)"/>
<path d="M0 0 C23.76 0 47.52 0 72 0 C72 3.3 72 6.6 72 10 C48.24 10 24.48 10 0 10 C0 6.7 0 3.4 0 0 Z " fill="#4EB4E2" transform="translate(460,473)"/>
<path d="M0 0 C23.76 0 47.52 0 72 0 C72 3.3 72 6.6 72 10 C48.24 10 24.48 10 0 10 C0 6.7 0 3.4 0 0 Z " fill="#3C8CB0" transform="translate(460,453)"/>
<path d="M0 0 C23.76 0 47.52 0 72 0 C72 3.3 72 6.6 72 10 C48.24 10 24.48 10 0 10 C0 6.7 0 3.4 0 0 Z " fill="#4EB4E2" transform="translate(692,250)"/>
<path d="M0 0 C23.76 0 47.52 0 72 0 C72 3.3 72 6.6 72 10 C48.24 10 24.48 10 0 10 C0 6.7 0 3.4 0 0 Z " fill="#4EB4E2" transform="translate(571,250)"/>
<path d="M0 0 C23.76 0 47.52 0 72 0 C72 3.3 72 6.6 72 10 C48.24 10 24.48 10 0 10 C0 6.7 0 3.4 0 0 Z " fill="#4EB4E2" transform="translate(349,250)"/>
<path d="M0 0 C23.76 0 47.52 0 72 0 C72 3.3 72 6.6 72 10 C48.24 10 24.48 10 0 10 C0 6.7 0 3.4 0 0 Z " fill="#3C8CB0" transform="translate(692,230)"/>
<path d="M0 0 C23.76 0 47.52 0 72 0 C72 3.3 72 6.6 72 10 C48.24 10 24.48 10 0 10 C0 6.7 0 3.4 0 0 Z " fill="#3C8CB0" transform="translate(571,230)"/>
<path d="M0 0 C23.76 0 47.52 0 72 0 C72 3.3 72 6.6 72 10 C48.24 10 24.48 10 0 10 C0 6.7 0 3.4 0 0 Z " fill="#3C8CB0" transform="translate(349,230)"/>
<path d="M0 0 C18.48 0 36.96 0 56 0 C56 3.3 56 6.6 56 10 C37.52 10 19.04 10 0 10 C0 6.7 0 3.4 0 0 Z " fill="#4EB4E2" transform="translate(245,584)"/>
<path d="M0 0 C18.48 0 36.96 0 56 0 C56 3.3 56 6.6 56 10 C37.52 10 19.04 10 0 10 C0 6.7 0 3.4 0 0 Z " fill="#3C8CB0" transform="translate(245,564)"/>
<path d="M0 0 C0.97484848 0.00222061 1.94969696 0.00444122 2.9540863 0.00672913 C4.05515213 0.00680466 5.15621796 0.00688019 6.29064941 0.00695801 C8.08749428 0.01469994 8.08749428 0.01469994 9.92063904 0.02259827 C11.14000656 0.02401321 12.35937408 0.02542816 13.61569214 0.02688599 C17.52856349 0.03250485 21.4413786 0.04506055 25.35423279 0.05775452 C27.99941426 0.06276709 30.64459662 0.06733041 33.28977966 0.07142639 C39.79045005 0.08248041 46.2910874 0.09923688 52.79173279 0.12025452 C52.79173279 3.42025452 52.79173279 6.72025452 52.79173279 10.12025452 C34.31173279 10.45025452 15.83173279 10.78025452 -3.20826721 11.12025452 C-3.20826721 0.17471102 -3.20826721 0.17471102 0 0 Z " fill="#4EB4E2" transform="translate(750.2082672119141,527.8797454833984)"/>
<path d="M0 0 C18.48 0 36.96 0 56 0 C56 3.3 56 6.6 56 10 C37.52 10 19.04 10 0 10 C0 6.7 0 3.4 0 0 Z " fill="#4EB4E2" transform="translate(189,528)"/>
<path d="M0 0 C0.97484848 0.00222061 1.94969696 0.00444122 2.9540863 0.00672913 C4.05515213 0.00680466 5.15621796 0.00688019 6.29064941 0.00695801 C8.08749428 0.01469994 8.08749428 0.01469994 9.92063904 0.02259827 C11.14000656 0.02401321 12.35937408 0.02542816 13.61569214 0.02688599 C17.52856349 0.03250485 21.4413786 0.04506055 25.35423279 0.05775452 C27.99941426 0.06276709 30.64459662 0.06733041 33.28977966 0.07142639 C39.79045005 0.08248041 46.2910874 0.09923688 52.79173279 0.12025452 C52.79173279 3.42025452 52.79173279 6.72025452 52.79173279 10.12025452 C34.31173279 10.45025452 15.83173279 10.78025452 -3.20826721 11.12025452 C-3.20826721 0.17471102 -3.20826721 0.17471102 0 0 Z " fill="#3C8CB0" transform="translate(750.2082672119141,507.87974548339844)"/>
<path d="M0 0 C18.48 0 36.96 0 56 0 C56 3.3 56 6.6 56 10 C37.52 10 19.04 10 0 10 C0 6.7 0 3.4 0 0 Z " fill="#3C8CB0" transform="translate(189,508)"/>
<path d="M0 0 C18.48 0 36.96 0 56 0 C56 3.3 56 6.6 56 10 C37.52 10 19.04 10 0 10 C0 6.7 0 3.4 0 0 Z " fill="#4EB4E2" transform="translate(803,473)"/>
<path d="M0 0 C18.48 0 36.96 0 56 0 C56 3.3 56 6.6 56 10 C37.52 10 19.04 10 0 10 C0 6.7 0 3.4 0 0 Z " fill="#3C8CB0" transform="translate(803,453)"/>
<path d="M0 0 C18.48 0 36.96 0 56 0 C56 3.3 56 6.6 56 10 C37.52 10 19.04 10 0 10 C0 6.7 0 3.4 0 0 Z " fill="#4EB4E2" transform="translate(875,417)"/>
<path d="M0 0 C18.48 0 36.96 0 56 0 C56 3.3 56 6.6 56 10 C37.52 10 19.04 10 0 10 C0 6.7 0 3.4 0 0 Z " fill="#3C8CB0" transform="translate(875,397)"/>
<path d="M0 0 C18.48 0 36.96 0 56 0 C56 3.3 56 6.6 56 10 C37.52 10 19.04 10 0 10 C0 6.7 0 3.4 0 0 Z " fill="#4EB4E2" transform="translate(117,361)"/>
<path d="M0 0 C18.48 0 36.96 0 56 0 C56 3.3 56 6.6 56 10 C37.52 10 19.04 10 0 10 C0 6.7 0 3.4 0 0 Z " fill="#3C8CB0" transform="translate(117,341)"/>
<path d="M0 0 C18.48 0 36.96 0 56 0 C56 3.3 56 6.6 56 10 C37.52 10 19.04 10 0 10 C0 6.7 0 3.4 0 0 Z " fill="#4EB4E2" transform="translate(764,306)"/>
<path d="M0 0 C18.48 0 36.96 0 56 0 C56 3.3 56 6.6 56 10 C37.52 10 19.04 10 0 10 C0 6.7 0 3.4 0 0 Z " fill="#3C8CB0" transform="translate(764,286)"/>
<path d="M0 0 C18.15 0 36.3 0 55 0 C55 3.3 55 6.6 55 10 C36.85 10 18.7 10 0 10 C0 6.7 0 3.4 0 0 Z " fill="#4EB4E2" transform="translate(692,584)"/>
<path d="M0 0 C18.15 0 36.3 0 55 0 C55 3.3 55 6.6 55 10 C36.85 10 18.7 10 0 10 C0 6.7 0 3.4 0 0 Z " fill="#3C8CB0" transform="translate(692,564)"/>
<path d="M0 0 C18.15 0 36.3 0 55 0 C55 3.3 55 6.6 55 10 C36.85 10 18.7 10 0 10 C0 6.7 0 3.4 0 0 Z " fill="#4EB4E2" transform="translate(134,473)"/>
<path d="M0 0 C18.15 0 36.3 0 55 0 C55 3.3 55 6.6 55 10 C36.85 10 18.7 10 0 10 C0 6.7 0 3.4 0 0 Z " fill="#3C8CB0" transform="translate(134,453)"/>
<path d="M0 0 C18.15 0 36.3 0 55 0 C55 3.3 55 6.6 55 10 C36.85 10 18.7 10 0 10 C0 6.7 0 3.4 0 0 Z " fill="#4EB4E2" transform="translate(62,417)"/>
<path d="M0 0 C18.15 0 36.3 0 55 0 C55 3.3 55 6.6 55 10 C36.85 10 18.7 10 0 10 C0 6.7 0 3.4 0 0 Z " fill="#3C8CB0" transform="translate(62,397)"/>
<path d="M0 0 C18.15 0 36.3 0 55 0 C55 3.3 55 6.6 55 10 C36.85 10 18.7 10 0 10 C0 6.7 0 3.4 0 0 Z " fill="#4EB4E2" transform="translate(820,361)"/>
<path d="M0 0 C18.15 0 36.3 0 55 0 C55 3.3 55 6.6 55 10 C36.85 10 18.7 10 0 10 C0 6.7 0 3.4 0 0 Z " fill="#3C8CB0" transform="translate(820,341)"/>
<path d="M0 0 C18.15 0 36.3 0 55 0 C55 3.3 55 6.6 55 10 C36.85 10 18.7 10 0 10 C0 6.7 0 3.4 0 0 Z " fill="#4EB4E2" transform="translate(173,306)"/>
<path d="M0 0 C18.15 0 36.3 0 55 0 C55 3.3 55 6.6 55 10 C36.85 10 18.7 10 0 10 C0 6.7 0 3.4 0 0 Z " fill="#3C8CB0" transform="translate(173,286)"/>
<path d="M0 0 C12.87 0 25.74 0 39 0 C39 3.3 39 6.6 39 10 C26.13 10 13.26 10 0 10 C0 6.7 0 3.4 0 0 Z " fill="#4EB4E2" transform="translate(532,528)"/>
<path d="M0 0 C12.87 0 25.74 0 39 0 C39 3.3 39 6.6 39 10 C26.13 10 13.26 10 0 10 C0 6.7 0 3.4 0 0 Z " fill="#4EB4E2" transform="translate(421,528)"/>
<path d="M0 0 C12.87 0 25.74 0 39 0 C39 3.3 39 6.6 39 10 C26.13 10 13.26 10 0 10 C0 6.7 0 3.4 0 0 Z " fill="#3C8CB0" transform="translate(532,508)"/>
<path d="M0 0 C12.87 0 25.74 0 39 0 C39 3.3 39 6.6 39 10 C26.13 10 13.26 10 0 10 C0 6.7 0 3.4 0 0 Z " fill="#3C8CB0" transform="translate(421,508)"/>
</svg>
