<?xml version="1.0" standalone="no"?>
<!DOCTYPE svg PUBLIC "-//W3C//DTD SVG 20010904//EN"
 "http://www.w3.org/TR/2001/REC-SVG-20010904/DTD/svg10.dtd">
<svg version="1.0" xmlns="http://www.w3.org/2000/svg"
 width="256.000000pt" height="256.000000pt" viewBox="0 0 256.000000 256.000000"
 preserveAspectRatio="xMidYMid meet">

<g transform="translate(0.000000,256.000000) scale(0.100000,-0.100000)"
fill="#000000" stroke="none">
<path d="M945 1899 c-349 -14 -421 -32 -481 -121 -37 -55 -48 -110 -65 -313
-17 -207 2 -518 37 -626 15 -48 68 -106 120 -133 66 -33 204 -41 724 -41 529
0 654 8 735 44 49 23 89 64 110 115 60 144 59 799 -1 920 -23 44 -63 85 -106
107 -53 27 -146 37 -438 49 -281 11 -342 11 -635 -1z m438 -524 c117 -67 153
-93 144 -101 -7 -6 -103 -63 -214 -127 l-203 -116 0 250 0 250 58 -33 c32 -18
129 -73 215 -123z"/>
</g>
</svg>
